<svg xmlns="http://www.w3.org/2000/svg" width="483.78" height="120.945" viewBox="0 0 128 32"><path d="M0 0h128v32H0z" fill="#fff"/><text xml:space="preserve" x="31.757" y="113.688" font-size="10.923" letter-spacing="0" word-spacing="0" font-family="Keraleeyam" fill="#535557"><tspan x="9.707" y="22.842" font-size="26.214" font-family="laksaman"><tspan stroke-width="1.032" stroke="#535557">sua </tspan><tspan stroke-width="1.032" stroke="#da4f3c" fill="#da4f3c">logo</tspan></tspan></text><path d="M113.034 12.297V9.074h1.357c.273 0 .48.03.622.087a.69.69 0 0 1 .34.307.95.95 0 0 1 .128.485c0 .23-.07.42-.2.578s-.358.257-.652.3c.107.054.2.108.244.16a2.2 2.2 0 0 1 .336.43l.533.878h-.5l-.405-.67-.293-.445a.93.93 0 0 0-.205-.215c-.06-.04-.122-.07-.185-.086a1.18 1.18 0 0 0-.226-.015h-.47v1.43zm.405-1.8h.87c.185 0 .33-.02.434-.06s.184-.105.238-.193.08-.185.08-.3c0-.153-.053-.278-.157-.376s-.27-.147-.498-.147h-.97z"/><path d="M114.24 13.506a2.9 2.9 0 0 1-2.896-2.896 2.9 2.9 0 0 1 2.896-2.896 2.9 2.9 0 0 1 2.897 2.896 2.9 2.9 0 0 1-2.897 2.896zm0-5.404a2.51 2.51 0 0 0-2.507 2.509 2.51 2.51 0 0 0 2.507 2.508 2.51 2.51 0 0 0 2.509-2.508 2.51 2.51 0 0 0-2.509-2.509z"/></svg>